<svg version="1.1" id="Layer_1" xmlns="http://www.w3.org/2000/svg" xmlns:xlink="http://www.w3.org/1999/xlink" x="0px" y="0px"
	width="48px" height="100%" viewBox="0 0 225 225" enable-background="new 0 0 225 225" xml:space="preserve">

<path fill="#645beb" opacity="1.000000" stroke="none" 
	d="
M204.940521,42.988270 
	C205.266418,45.238663 204.877777,47.978592 206.031143,49.662075 
	C215.351074,63.265736 221.801224,77.985733 224.499771,94.299538 
	C224.539383,94.539131 224.975845,94.713081 225.613556,94.958832 
	C226.000000,98.361290 226.000000,101.722572 225.729996,105.719376 
	C225.353775,107.193787 225.247543,108.032684 225.114807,109.233917 
	C225.392181,110.730835 225.696091,111.865417 226.000000,113.000000 
	C226.000000,113.444443 226.000000,113.888893 225.810760,114.946541 
	C225.476074,116.436523 225.330643,117.313301 225.156250,118.541275 
	C225.418198,119.928322 225.709091,120.964157 226.000000,122.000000 
	C226.000000,124.700012 226.000000,127.400024 226.000000,130.550018 
	C225.340530,131.949905 224.249222,132.831146 224.085648,133.859894 
	C221.112961,152.556305 213.296738,169.049561 201.513000,183.729416 
	C184.619034,204.775497 162.955536,218.177399 136.603531,224.021652 
	C135.707779,224.220306 134.902496,224.826813 134.027527,225.621613 
	C131.958328,226.000000 129.916672,226.000000 127.330994,225.636002 
	C125.191322,225.514679 123.595657,225.757339 122.000000,226.000000 
	C115.978844,226.000000 109.957695,226.000000 103.328674,225.700470 
	C101.813873,225.600632 100.906937,225.800323 100.000000,226.000000 
	C98.285645,226.000000 96.571281,226.000000 94.428467,226.000000 
	C93.074814,225.347000 92.237480,224.405060 91.208847,224.092300 
	C87.291412,222.901245 83.312256,221.913193 79.153648,220.248718 
	C78.973511,219.425537 78.995895,219.202911 79.274734,218.855835 
	C80.043015,218.475754 80.554825,218.220139 81.476395,218.000702 
	C83.022629,218.182068 84.196503,218.191696 85.289803,218.493347 
	C96.492599,221.584213 107.831619,223.612671 119.474915,221.990677 
	C127.143654,220.922363 134.967239,220.108856 142.321060,217.867493 
	C150.350403,215.420258 158.151276,211.906387 165.617599,208.022781 
	C172.380295,204.505142 179.127243,200.525375 184.877228,195.581680 
	C197.226898,184.963776 206.361389,171.815521 212.970139,156.828308 
	C222.500687,135.215042 224.776779,113.015022 219.373123,90.047646 
	C215.894882,75.263901 209.011780,61.995190 200.902100,48.897209 
	C200.996445,45.727009 201.427460,43.232258 204.940521,42.988270 
z"/>
<path fill="#645beb" opacity="1.000000" stroke="none" 
	d="
M129.531342,0.999997 
	C131.131714,1.667793 132.186752,2.578587 133.407623,2.963795 
	C141.103348,5.391963 148.835907,7.703440 156.767090,10.781332 
	C156.908524,12.487468 156.839157,13.465733 156.411865,14.340986 
	C148.704483,11.834365 141.500534,8.717249 133.973923,7.182721 
	C120.302933,4.395473 106.352882,3.229367 92.711914,7.276827 
	C82.593597,10.279067 72.366875,13.403131 62.880352,17.924633 
	C50.926445,23.622147 40.830956,32.121311 31.994989,42.206852 
	C18.882271,57.173958 10.268766,74.224449 7.074290,93.790970 
	C5.610232,102.758476 5.421331,111.934181 4.406812,121.193466 
	C3.106317,122.580978 2.053158,123.790489 0.999999,125.000000 
	C1.000000,115.645775 1.000000,106.291542 1.000001,96.468658 
	C2.012786,93.622108 3.457384,91.332512 3.964688,88.851273 
	C6.345196,77.208176 10.549721,66.419510 16.791555,56.223286 
	C27.259077,39.124268 41.646252,26.061413 58.046261,15.114865 
	C68.067406,8.426028 79.869827,5.852369 91.381073,2.817075 
	C92.261833,2.584834 93.081985,2.122685 93.965149,1.383701 
	C105.687561,1.000000 117.375122,1.000000 129.531342,0.999997 
z"/>
<path fill="#645beb" opacity="1.000000" stroke="none" 
	d="
M0.999999,125.428459 
	C2.053158,123.790489 3.106317,122.580978 4.584083,121.524055 
	C5.236270,123.120552 5.463851,124.564461 5.454628,126.170219 
	C5.421469,127.553688 5.625114,128.775314 5.901577,130.394745 
	C9.191052,143.462982 12.693968,155.901810 19.211264,167.523834 
	C27.533426,182.364395 38.497261,194.483398 52.567123,203.719086 
	C59.335152,208.161728 66.823517,211.507019 73.987595,215.718613 
	C73.993874,217.073639 73.998230,218.059280 74.002594,219.044937 
	C63.024387,215.968246 53.657753,209.681931 44.921379,202.856216 
	C37.332283,196.926880 30.224972,189.990814 24.294376,182.412201 
	C12.881122,167.827408 4.411733,151.639938 2.810534,132.650238 
	C2.764798,132.107803 2.142524,131.614014 1.394539,131.048767 
	C1.000000,129.285645 1.000000,127.571281 0.999999,125.428459 
z"/>
<path fill="#645beb" opacity="1.000000" stroke="none" 
	d="
M122.416664,226.000000 
	C123.595657,225.757339 125.191322,225.514679 126.893494,225.636002 
	C125.611107,226.000000 124.222221,226.000000 122.416664,226.000000 
z"/>
<path fill="#645beb" opacity="1.000000" stroke="none" 
	d="
M226.000000,121.600021 
	C225.709091,120.964157 225.418198,119.928322 225.365005,118.515961 
	C225.602707,118.139450 226.000000,118.000000 226.000000,118.000000 
	C226.000000,119.066681 226.000000,120.133362 226.000000,121.600021 
z"/>
<path fill="#645beb" opacity="1.000000" stroke="none" 
	d="
M226.000000,112.600006 
	C225.696091,111.865417 225.392181,110.730835 225.330444,109.258118 
	C225.572601,108.919991 226.000000,109.000000 226.000000,109.000000 
	C226.000000,110.066673 226.000000,111.133339 226.000000,112.600006 
z"/>
<path fill="#645beb" opacity="1.000000" stroke="none" 
	d="
M226.000000,117.625000 
	C226.000000,118.000000 225.602707,118.139450 225.393951,118.164764 
	C225.330643,117.313301 225.476074,116.436523 225.810760,115.279877 
	C226.000000,115.750000 226.000000,116.500000 226.000000,117.625000 
z"/>
<path fill="#868e96" opacity="1.000000" stroke="none" 
	d="
M100.375000,226.000000 
	C100.906937,225.800323 101.813873,225.600632 102.860405,225.700470 
	C102.250000,226.000000 101.500000,226.000000 100.375000,226.000000 
z"/>
<path fill="#645beb" opacity="1.000000" stroke="none" 
	d="
M226.000000,108.625000 
	C226.000000,109.000000 225.572601,108.919991 225.356964,108.895782 
	C225.247543,108.032684 225.353775,107.193787 225.729996,106.177444 
	C226.000000,106.750000 226.000000,107.500000 226.000000,108.625000 
z"/>
<path fill="#645beb" opacity="1.000000" stroke="none" 
	d="
M74.200462,219.044006 
	C73.998230,218.059280 73.993874,217.073639 74.239044,215.625000 
	C74.659187,215.108368 74.829796,215.054718 75.186829,215.175873 
	C75.650635,215.548172 75.928017,215.745651 76.426506,216.029083 
	C76.647621,216.115036 77.095673,216.271149 77.247681,216.400375 
	C77.607910,216.696503 77.825012,216.850937 78.295761,217.061981 
	C78.696190,217.198227 78.851875,217.265366 79.009064,217.607132 
	C79.013138,218.247925 79.015701,218.614120 79.018265,218.980301 
	C78.995895,219.202911 78.973511,219.425537 78.914047,219.982635 
	C78.473091,220.252090 78.069214,220.187088 77.103210,219.918427 
	C75.958359,219.501007 75.375626,219.287231 74.792900,219.073441 
	C74.792900,219.073441 74.398331,219.043091 74.200462,219.044006 
z"/>
<path fill="#645beb" opacity="1.000000" stroke="none" 
	d="
M74.952126,219.375275 
	C75.375626,219.287231 75.958359,219.501007 76.794525,219.898529 
	C76.402435,219.947220 75.756897,219.812164 74.952126,219.375275 
z"/>
<path fill="#645beb" opacity="1.000000" stroke="none" 
	d="
M156.769806,14.443998 
	C156.839157,13.465733 156.908524,12.487468 157.015442,11.012373 
	C157.225677,10.549218 157.398376,10.582892 158.011597,11.061323 
	C160.048569,11.969523 161.645050,12.432968 163.241531,12.896413 
	C169.119446,16.345833 174.997375,19.795254 181.006226,23.321508 
	C186.728333,18.217216 197.146576,18.965204 201.696442,25.198606 
	C201.605682,29.892040 201.397568,33.934994 201.174011,38.277588 
	C202.540604,39.050217 204.251419,40.017460 205.962234,40.984703 
	C205.771545,41.527775 205.580872,42.070850 205.165344,42.801098 
	C201.427460,43.232258 200.996445,45.727009 200.548523,48.997295 
	C192.981400,52.122021 185.829559,52.473297 179.847748,47.082211 
	C174.555923,42.312950 175.058487,35.903492 176.982239,29.718418 
	C177.967880,26.549438 176.880829,24.586020 174.311417,23.248739 
	C168.508575,20.228586 162.622208,17.368938 156.769806,14.443998 
z"/>
<path fill="#645beb" opacity="1.000000" stroke="none" 
	d="
M206.219543,40.735161 
	C204.251419,40.017460 202.540604,39.050217 201.174011,38.277588 
	C201.397568,33.934994 201.605682,29.892040 201.878555,25.498287 
	C207.319809,29.117710 208.269440,34.396400 206.219543,40.735161 
z"/>
<path fill="#645beb" opacity="1.000000" stroke="none" 
	d="
M163.030640,12.603817 
	C161.645050,12.432968 160.048569,11.969523 158.214203,11.230463 
	C159.590805,11.406972 161.205261,11.859097 163.030640,12.603817 
z"/>
<path fill="#645beb" opacity="1.000000" stroke="none" 
	d="
M79.009064,217.607132 
	C79.574432,217.390228 80.141319,217.447952 80.887421,217.735092 
	C80.554825,218.220139 80.043015,218.475754 79.274734,218.855835 
	C79.015701,218.614120 79.013138,218.247925 79.009064,217.607132 
z"/>
<path fill="#645beb" opacity="1.000000" stroke="none" 
	d="
M5.454627,126.170219 
	C5.764165,127.071785 5.836900,128.135193 5.869197,129.597778 
	C5.625114,128.775314 5.421469,127.553688 5.454627,126.170219 
z"/>
<path fill="#645beb" opacity="1.000000" stroke="none" 
	d="
M75.186829,215.175873 
	C75.335434,215.136475 75.670471,215.271881 76.105453,215.675201 
	C75.928017,215.745651 75.650635,215.548172 75.186829,215.175873 
z"/>
<path fill="#645beb" opacity="1.000000" stroke="none" 
	d="
M77.247681,216.400375 
	C77.408272,216.250839 77.654152,216.369186 77.942162,216.809540 
	C77.825012,216.850937 77.607910,216.696503 77.247681,216.400375 
z"/>
<path fill="#645beb" opacity="1.000000" stroke="none" 
	d="
M71.874329,133.931503 
	C65.953293,119.208366 65.380424,104.629250 73.498390,91.300606 
	C81.760353,77.735550 93.375435,68.442741 110.632706,67.843086 
	C125.579590,67.323715 137.771652,72.262260 147.605820,83.196449 
	C154.620178,90.995384 158.749512,99.905151 159.160339,110.807892 
	C159.707062,125.315948 155.378998,137.490601 144.854935,147.420319 
	C136.292496,155.499222 126.015182,159.426422 114.278099,159.477295 
	C103.752106,159.522919 93.808250,157.156586 85.903519,149.949493 
	C80.775734,145.274277 76.606438,139.547806 71.874329,133.931503 
z"/>
</svg>