<svg version="1.1" id="Layer_1" xmlns="http://www.w3.org/2000/svg" xmlns:xlink="http://www.w3.org/1999/xlink" x="0px" y="0px"
	 width="100%" height="100%" viewBox="0 0 512 512" enable-background="new 0 0 512 512" xml:space="preserve">
<path fill="#868e96" opacity="1.000000" stroke="none" 
	d="
M410.000000,65.000000 
	C426.498413,65.000977 442.496918,64.970238 458.495209,65.012993 
	C471.229401,65.047035 480.979187,74.704308 480.982697,87.390808 
	C481.007996,179.048386 481.006165,270.705963 480.986145,362.363525 
	C480.983307,375.363190 471.295776,384.979858 458.224396,384.987061 
	C410.729126,385.013153 363.233826,384.999207 315.738556,385.000336 
	C313.448273,385.000397 311.157990,385.000366 307.884796,385.000366 
	C309.020111,389.624695 309.931244,393.394257 310.871887,397.156433 
	C313.525177,407.767883 316.336090,418.343231 318.761475,429.006348 
	C319.479004,432.160919 320.989471,433.037323 323.901001,433.014984 
	C333.399384,432.942017 342.899078,432.961792 352.397766,433.019928 
	C358.916840,433.059814 361.045197,435.146454 360.980591,441.198059 
	C360.919434,446.924957 358.795898,448.974884 352.501648,448.977325 
	C288.841309,449.002136 225.180954,449.002014 161.520615,448.977722 
	C155.210999,448.975311 153.087204,446.937622 153.019424,441.220306 
	C152.947571,435.159882 155.076401,433.060913 161.579956,433.020355 
	C170.912033,432.962158 180.246094,432.900604 189.576309,433.040527 
	C192.931046,433.090790 194.551117,432.103516 195.382126,428.552185 
	C198.694916,414.394745 202.390762,400.326935 206.122894,385.519379 
	C203.243607,385.315918 201.013641,385.022125 198.783524,385.020844 
	C151.454895,384.993591 104.122177,384.657715 56.800301,385.222961 
	C43.920425,385.376831 32.735168,373.047607 32.785465,361.355896 
	C33.176868,270.366608 33.169052,179.374222 32.808464,88.384666 
	C32.758541,75.787079 45.020252,64.762283 56.535706,64.795197 
	C174.189713,65.131416 291.845032,65.000404 410.000000,65.000000 
M218.500000,329.000000 
	C298.137299,328.999786 377.774628,329.000977 457.411926,328.997070 
	C464.982910,328.996704 464.996948,328.981781 464.997314,321.344818 
	C465.001068,246.539124 465.001007,171.733444 464.998657,96.927757 
	C464.998230,83.265297 462.740448,81.001419 449.118469,81.001236 
	C320.999146,80.999496 192.879852,81.000145 64.760536,81.000999 
	C63.261124,81.001015 61.759617,80.963646 60.262646,81.027344 
	C52.366386,81.363342 49.628475,84.016525 49.044125,91.902023 
	C48.958122,93.062599 49.002567,94.233543 49.002544,95.399689 
	C49.001019,170.871796 48.999130,246.343903 49.004360,321.816010 
	C49.004856,328.970734 49.026031,328.994110 56.059673,328.995056 
	C109.873116,329.002228 163.686554,328.999603 218.500000,329.000000 
M332.500000,369.000000 
	C372.321777,368.998535 412.143555,369.017639 451.965302,368.980499 
	C461.401489,368.971710 464.885223,365.435486 464.994629,356.091248 
	C465.004395,355.258240 465.006592,354.424957 464.998199,353.591949 
	C464.902710,344.140991 465.824371,345.014923 456.349396,345.013489 
	C324.554321,344.993744 192.759262,345.000061 60.964188,345.000031 
	C47.901508,345.000031 47.901508,345.000183 49.042305,358.275604 
	C49.655857,365.415497 52.864296,368.551331 60.079861,368.958344 
	C62.073368,369.070801 64.077698,368.998840 66.077065,368.998871 
	C154.551376,369.000153 243.025681,369.000000 332.500000,369.000000 
M251.500000,433.000000 
	C268.172150,433.000000 284.844330,433.000000 302.233826,433.000000 
	C298.246246,417.072266 294.667542,402.467316 290.810852,387.936157 
	C290.487061,386.716187 288.302826,385.172119 286.970673,385.160278 
	C266.995636,384.982483 247.017822,384.971497 227.043381,385.180389 
	C225.676697,385.194702 223.600357,387.012146 223.111267,388.425934 
	C221.546616,392.948730 220.535675,397.666840 219.380844,402.326874 
	C216.926849,412.229218 214.516876,422.142456 211.856384,433.000000 
	C225.305496,433.000000 237.902756,433.000000 251.500000,433.000000 
z"/>

<path fill="#868e96" opacity="1.000000" stroke="none" 
	d="
M302.462372,154.026520 
	C290.183136,157.657883 286.026093,168.748993 293.227264,178.637024 
	C305.689789,195.749527 318.381836,212.696854 331.127289,229.600616 
	C339.731384,241.011826 339.712433,259.428650 329.033783,271.023590 
	C325.123138,275.269775 319.068817,278.548279 313.410431,280.000031 
	C291.524811,285.615082 271.511230,270.341980 273.013306,247.895370 
	C273.288361,243.785522 275.219330,241.373428 279.405457,241.063980 
	C283.625275,240.752014 287.534851,241.144165 288.859680,246.193954 
	C289.278748,247.791306 289.717773,249.395004 289.966248,251.023483 
	C290.975403,257.637756 294.790649,261.948029 301.074493,263.733734 
	C307.238037,265.485229 313.939056,262.856598 317.488129,257.881836 
	C320.822021,253.208694 321.171295,245.473114 317.642273,240.466492 
	C311.818848,232.204788 305.655762,224.181015 299.579773,216.099136 
	C292.309784,206.429123 284.399170,197.180374 277.837250,187.054977 
	C270.955750,176.436523 270.738770,164.565231 276.493988,153.314301 
	C281.881683,142.781860 291.097809,137.748810 303.027222,136.912094 
	C319.859711,135.731491 332.844299,146.275772 336.258087,160.806396 
	C337.075714,164.286713 337.050110,168.081253 336.747101,171.675186 
	C336.459747,175.083633 333.915527,176.801300 330.509094,176.938202 
	C326.968994,177.080444 323.313324,177.254562 321.666748,173.107727 
	C320.998596,171.425095 320.530762,169.642410 320.158844,167.866074 
	C318.027130,157.685043 313.231995,153.813187 302.462372,154.026520 
z"/>
<path fill="#868e96" opacity="1.000000" stroke="none" 
	d="
M112.999863,245.023560 
	C112.666595,239.907883 112.578964,235.253113 111.942322,230.674683 
	C110.994789,223.860489 106.483376,219.428238 99.655602,218.003922 
	C98.032433,217.665329 96.419922,217.272308 94.791092,216.964783 
	C90.350174,216.126282 88.985580,213.181839 88.980545,209.009689 
	C88.975517,204.836990 90.348251,201.909424 94.767563,201.020355 
	C97.191437,200.532715 99.682930,200.179611 101.987854,199.338257 
	C110.540741,196.216171 112.613205,188.974289 112.929871,180.989136 
	C113.213623,173.833801 112.987663,166.658630 113.003487,159.492233 
	C113.043259,141.488831 128.233261,127.591095 146.226471,129.016754 
	C150.355804,129.343918 152.669495,131.356094 152.947815,135.526642 
	C153.231277,139.774490 152.762283,143.642807 147.684021,144.875763 
	C144.952576,145.538925 142.093475,145.851685 139.493347,146.848068 
	C131.166351,150.039001 129.431213,157.312805 129.076920,165.043686 
	C128.764435,171.862671 128.841339,178.711685 129.042374,185.538712 
	C129.263138,193.036301 127.130524,199.636230 122.213745,205.255447 
	C119.942345,207.851379 119.895096,210.089005 122.174950,212.696655 
	C127.218117,218.464920 129.145096,225.242401 129.084808,232.909256 
	C129.017014,241.534317 129.085083,250.224472 130.063354,258.775391 
	C131.004852,267.004913 135.222656,270.580322 143.297562,272.044800 
	C151.451523,273.523621 153.793945,276.184296 152.940216,282.917816 
	C152.508881,286.319733 150.681885,288.323395 147.279175,288.898834 
	C130.794052,291.686584 113.175453,276.854492 113.011940,260.018097 
	C112.965004,255.185349 113.001579,250.351807 112.999863,245.023560 
z"/>
<path fill="#868e96" opacity="1.000000" stroke="none" 
	d="
M400.999603,255.921555 
	C402.966187,274.037903 385.573914,290.662628 368.807587,289.063416 
	C364.400635,288.643036 361.474731,287.309662 361.040070,282.525146 
	C360.518829,276.787842 362.017639,274.178619 367.248810,273.014893 
	C373.682373,271.583710 380.165863,270.211884 382.768799,263.157379 
	C384.005859,259.804626 384.585999,256.124664 384.910797,252.542816 
	C385.270233,248.578995 385.205902,244.544998 384.960480,240.564102 
	C384.255310,229.126617 385.461731,218.274979 394.049683,209.443207 
	C392.373993,206.754700 390.483795,204.545456 389.513916,201.987274 
	C387.725525,197.270157 385.658325,192.427780 385.178925,187.494568 
	C384.250183,177.937714 384.721252,168.248459 383.883270,158.677917 
	C383.278076,151.765991 378.493927,147.439911 371.674866,146.004044 
	C369.890442,145.628296 368.094971,145.298859 366.322632,144.872971 
	C361.248505,143.653687 360.771332,139.790741 361.050476,135.543396 
	C361.324127,131.380020 363.619446,129.352081 367.747162,129.018600 
	C385.523926,127.582359 400.854034,141.715485 401.038788,159.544540 
	C401.133209,168.658630 401.241364,177.806900 402.097595,186.868439 
	C402.840698,194.732819 407.247894,198.558838 415.372803,200.050156 
	C423.446136,201.531982 425.517517,203.833511 424.974396,210.479477 
	C424.696259,213.883163 423.068329,216.070709 419.737854,216.860519 
	C417.323029,217.433167 414.820648,217.691498 412.457275,218.416016 
	C405.292694,220.612427 401.263824,227.133942 401.038666,236.952454 
	C400.897461,243.110138 401.004242,249.273483 400.999603,255.921555 
z"/>
<path fill="#868e96" opacity="1.000000" stroke="none" 
	d="
M219.000000,137.000000 
	C226.661514,137.003738 233.823807,136.944168 240.984314,137.031067 
	C246.823654,137.101929 248.914215,139.210800 248.980576,144.776886 
	C249.051132,150.692917 246.963318,152.882675 240.930817,152.972031 
	C235.269409,153.055908 229.605850,152.987457 223.943283,153.003860 
	C217.036057,153.023880 217.008438,153.031921 217.006210,159.796127 
	C216.995346,192.772476 217.000854,225.748840 216.999588,258.725189 
	C216.999405,263.388489 217.044205,268.052521 216.978317,272.714935 
	C216.891418,278.864532 214.803284,280.982361 208.992767,280.980042 
	C203.189514,280.977722 201.034225,278.857605 201.027328,272.700653 
	C200.987091,236.726501 201.002853,200.752274 201.000107,164.778076 
	C200.999207,153.000168 200.999771,153.001694 189.045837,152.999176 
	C184.882187,152.998306 180.716080,153.076157 176.555496,152.960205 
	C170.980423,152.804825 168.946411,150.518326 169.019440,144.762421 
	C169.087921,139.364777 171.128937,137.091324 176.530563,137.051285 
	C190.519745,136.947571 204.510101,137.006195 219.000000,137.000000 
z"/>
</svg>